<svg width="43" height="47" viewBox="0 0 43 47" fill="none" xmlns="http://www.w3.org/2000/svg">
<path d="M25.7315 30.8751L26.8068 32.0505L28.0682 33.4217L28.5507 33.9566L31.0667 31.2066L28.2543 28.1252L25.7315 30.8751Z" fill="#5D6D7E"/>
<path d="M33.5204 31.2142L41.9712 40.451C43.3429 41.9503 43.3429 44.3763 41.9712 45.8756C40.5995 47.3748 38.38 47.3748 37.0083 45.8756L28.5575 36.6387L33.5204 31.2142Z" fill="#FF9F00"/>
<path d="M32.328 32.3216L33.0173 31.5532L41.537 40.9934C42.6468 42.2365 42.6468 44.218 41.537 45.4611C41.4474 45.5591 41.3233 45.6194 41.1924 45.6194C41.0614 45.6194 40.9373 45.5591 40.8477 45.4611C40.6547 45.2502 40.6547 44.9111 40.8477 44.6927C41.5784 43.879 41.5784 42.568 40.8477 41.7544L32.328 32.3216Z" fill="#DDDDDD"/>
<path d="M28.4611 36.5634L33.4585 31.1012L33.0863 30.6943C32.6038 30.1669 31.818 30.1669 31.3355 30.6943L28.0889 34.2429C27.6064 34.7703 27.6064 35.6216 28.0889 36.149L28.4611 36.5634Z" fill="#34495E"/>
<path d="M0 17.449C0 7.81287 7.1549 0 15.971 0C24.7871 0 31.942 7.82041 31.942 17.4565C31.942 27.0927 24.794 34.9131 15.971 34.9131C7.148 34.9131 0 27.0927 0 17.449C0 17.4565 0 17.449 0 17.449Z" fill="#34495E"/>
<path d="M16.0055 32.9319C23.8083 32.9319 30.1291 26.0231 30.1291 17.4945C30.1291 8.96591 23.8083 2.05713 16.0055 2.05713C8.20951 2.05713 1.88177 8.96591 1.88177 17.4945C1.88177 26.0156 8.20262 32.9319 16.0055 32.9319Z" fill="#5D6D7E"/>
<path d="M16.0055 31.8998C23.2845 31.8998 29.1849 25.4506 29.1849 17.4945C29.1849 9.53852 23.2845 3.08179 16.0055 3.08179C8.72655 3.08179 2.82617 9.53852 2.82617 17.4945C2.82617 25.4506 8.72655 31.8998 16.0055 31.8998Z" fill="#CEE2F2"/>
<path d="M24.794 9.32754C22.4711 10.307 20.3481 11.7611 18.5283 13.6144C18.0458 13.4186 17.5288 13.3131 17.0119 13.3131H15.4196C14.9026 13.3131 14.3856 13.4186 13.9031 13.6144C12.0834 11.7611 9.96037 10.307 7.63744 9.32754C7.12047 9.11658 6.54146 9.40288 6.34845 9.96794C6.27953 10.1563 6.26574 10.3597 6.3002 10.5556C6.74135 13.0193 7.58229 15.385 8.78167 17.5247C9.28486 18.4363 10.0431 19.1445 10.9392 19.5513L10.2292 26.6033C10.2292 28.645 12.9106 30.295 16.2192 30.295C19.5278 30.295 22.2092 28.645 22.2092 26.6033L21.4992 19.5513C22.3953 19.1445 23.1535 18.4363 23.6567 17.5247C24.8561 15.385 25.697 13.0193 26.1381 10.5556C26.2415 9.9604 25.8762 9.38781 25.3317 9.2748C25.1525 9.23713 24.9663 9.25973 24.8009 9.32754H24.794Z" fill="#FF9F00"/>
<path d="M22.2023 26.6033L21.706 21.691L19.6105 21.239C18.3215 20.9602 17.2669 19.9657 16.8189 18.6171L16.2123 16.7712L15.6057 18.6171C15.1577 19.9657 14.103 20.9602 12.814 21.239L10.7186 21.691L10.2223 26.6033C10.2223 28.645 12.9037 30.295 16.2123 30.295C19.5209 30.295 22.2023 28.6375 22.2023 26.6033Z" fill="#F3E8D4"/>
<path d="M18.866 22.03C18.6868 22.03 18.542 22.1883 18.542 22.3841C18.542 22.9869 18.094 23.4841 17.5425 23.4841C17.0669 23.4841 16.6602 23.1225 16.5568 22.6102C16.5982 22.58 16.6258 22.5424 16.6602 22.5047L17.4185 21.4424C17.6115 21.1712 17.5632 20.7869 17.322 20.576C17.2255 20.4931 17.1014 20.4479 16.9773 20.4479H15.4609C15.1507 20.4479 14.8956 20.7266 14.8956 21.0657C14.8956 21.2013 14.937 21.3369 15.0128 21.4424L15.771 22.5047C15.7986 22.5424 15.8331 22.58 15.8675 22.6102C15.7573 23.2054 15.2265 23.5821 14.682 23.4615C14.2132 23.356 13.8824 22.904 13.8824 22.3841C13.8824 22.1883 13.7376 22.03 13.5584 22.03C13.3792 22.03 13.2344 22.1883 13.2344 22.3841C13.2344 23.3786 13.972 24.1848 14.8819 24.1923C15.4057 24.1923 15.902 23.9211 16.2122 23.454C16.7498 24.2601 17.7838 24.4334 18.5144 23.8382C18.9418 23.4992 19.19 22.9567 19.19 22.3841C19.19 22.1807 19.0452 22.0225 18.866 22.03Z" fill="#2B1716"/>
<path d="M18.7695 17.7356C18.3559 17.7356 18.0182 18.1048 18.0182 18.5568V19.1369C18.032 19.589 18.3766 19.9506 18.7971 19.9356C19.1969 19.9205 19.514 19.5739 19.5277 19.1369V18.5568C19.5209 18.0972 19.1831 17.7356 18.7695 17.7356Z" fill="#2B1716"/>
<path d="M13.6549 17.7356C13.2413 17.7356 12.8967 18.0972 12.8967 18.5568V19.1369C12.9105 19.589 13.2551 19.9506 13.6756 19.9356C14.0754 19.9205 14.3924 19.5739 14.4062 19.1369V18.5568C14.3993 18.1048 14.0685 17.7356 13.6549 17.7356Z" fill="#2B1716"/>
<path d="M8.36111 9.02618C8.29908 8.9207 8.21636 8.83029 8.13365 8.75495C7.64425 8.31797 6.91359 8.39331 6.5138 8.93577L6.50691 8.9433C3.8738 12.4843 3.21896 17.3288 4.79745 21.5554C5.05939 22.1958 5.74179 22.4821 6.32769 22.1958C6.88602 21.9246 7.15485 21.2239 6.94116 20.5986C5.68665 17.2158 6.21051 13.3658 8.30597 10.5255C8.62305 10.096 8.64373 9.48576 8.36111 9.02618Z" fill="white"/>
<path d="M15.778 4.87488C15.5505 4.50571 15.1576 4.28722 14.7509 4.30983C12.9588 4.42284 11.2217 4.99543 9.67083 5.97486C9.11939 6.32143 8.93328 7.09745 9.25036 7.70018C9.56743 8.30291 10.2774 8.50633 10.8288 8.15976C12.0696 7.37621 13.4551 6.92416 14.8819 6.83375C15.5161 6.79608 15.9986 6.20842 15.9641 5.51528V5.50775C15.9641 5.28173 15.8952 5.06324 15.778 4.87488Z" fill="white"/>
</svg>
